<?xml version="1.0" encoding="utf-8"?>
<svg xmlns="http://www.w3.org/2000/svg" xmlns:xlink="http://www.w3.org/1999/xlink" style="margin: auto; background: none; display: block; shape-rendering: auto;" width="185px" height="185px" viewBox="0 0 100 100" preserveAspectRatio="xMidYMid">
<g transform="rotate(0 50 50)">
  <rect x="47" y="18.5" rx="1.87" ry="1.87" width="6" height="17" fill="#2c3e50">
    <animate attributeName="opacity" values="1;0" keyTimes="0;1" dur="0.5524861878453039s" begin="-0.5064456721915286s" repeatCount="indefinite"></animate>
  </rect>
</g><g transform="rotate(30 50 50)">
  <rect x="47" y="18.5" rx="1.87" ry="1.87" width="6" height="17" fill="#2c3e50">
    <animate attributeName="opacity" values="1;0" keyTimes="0;1" dur="0.5524861878453039s" begin="-0.46040515653775327s" repeatCount="indefinite"></animate>
  </rect>
</g><g transform="rotate(60 50 50)">
  <rect x="47" y="18.5" rx="1.87" ry="1.87" width="6" height="17" fill="#2c3e50">
    <animate attributeName="opacity" values="1;0" keyTimes="0;1" dur="0.5524861878453039s" begin="-0.4143646408839779s" repeatCount="indefinite"></animate>
  </rect>
</g><g transform="rotate(90 50 50)">
  <rect x="47" y="18.5" rx="1.87" ry="1.87" width="6" height="17" fill="#2c3e50">
    <animate attributeName="opacity" values="1;0" keyTimes="0;1" dur="0.5524861878453039s" begin="-0.3683241252302026s" repeatCount="indefinite"></animate>
  </rect>
</g><g transform="rotate(120 50 50)">
  <rect x="47" y="18.5" rx="1.87" ry="1.87" width="6" height="17" fill="#2c3e50">
    <animate attributeName="opacity" values="1;0" keyTimes="0;1" dur="0.5524861878453039s" begin="-0.32228360957642727s" repeatCount="indefinite"></animate>
  </rect>
</g><g transform="rotate(150 50 50)">
  <rect x="47" y="18.5" rx="1.87" ry="1.87" width="6" height="17" fill="#2c3e50">
    <animate attributeName="opacity" values="1;0" keyTimes="0;1" dur="0.5524861878453039s" begin="-0.27624309392265195s" repeatCount="indefinite"></animate>
  </rect>
</g><g transform="rotate(180 50 50)">
  <rect x="47" y="18.5" rx="1.87" ry="1.87" width="6" height="17" fill="#2c3e50">
    <animate attributeName="opacity" values="1;0" keyTimes="0;1" dur="0.5524861878453039s" begin="-0.23020257826887663s" repeatCount="indefinite"></animate>
  </rect>
</g><g transform="rotate(210 50 50)">
  <rect x="47" y="18.5" rx="1.87" ry="1.87" width="6" height="17" fill="#2c3e50">
    <animate attributeName="opacity" values="1;0" keyTimes="0;1" dur="0.5524861878453039s" begin="-0.1841620626151013s" repeatCount="indefinite"></animate>
  </rect>
</g><g transform="rotate(240 50 50)">
  <rect x="47" y="18.5" rx="1.87" ry="1.87" width="6" height="17" fill="#2c3e50">
    <animate attributeName="opacity" values="1;0" keyTimes="0;1" dur="0.5524861878453039s" begin="-0.13812154696132597s" repeatCount="indefinite"></animate>
  </rect>
</g><g transform="rotate(270 50 50)">
  <rect x="47" y="18.5" rx="1.87" ry="1.87" width="6" height="17" fill="#2c3e50">
    <animate attributeName="opacity" values="1;0" keyTimes="0;1" dur="0.5524861878453039s" begin="-0.09208103130755065s" repeatCount="indefinite"></animate>
  </rect>
</g><g transform="rotate(300 50 50)">
  <rect x="47" y="18.5" rx="1.87" ry="1.87" width="6" height="17" fill="#2c3e50">
    <animate attributeName="opacity" values="1;0" keyTimes="0;1" dur="0.5524861878453039s" begin="-0.04604051565377532s" repeatCount="indefinite"></animate>
  </rect>
</g><g transform="rotate(330 50 50)">
  <rect x="47" y="18.5" rx="1.87" ry="1.87" width="6" height="17" fill="#2c3e50">
    <animate attributeName="opacity" values="1;0" keyTimes="0;1" dur="0.5524861878453039s" begin="0s" repeatCount="indefinite"></animate>
  </rect>
</g>
<!-- [ldio] generated by https://loading.io/ --></svg>